# xmcd
#
# Track frame offsets:
#	150
#	30092
#	47680
#	75715
#	91232
#	110225
#	131405
#	144602
#	160930
#	180012
#	201135
#	217872
#	240142
#
# Disc length: 3633 seconds
#
# Revision: 5
# Processed by: cddbd v1.5.1PL0 Copyright (c) Steve Scherf et al.
# Submitted via: audiograbber 1.80
#
DISCID=980e2f0d
DTITLE=Ella Fitzgerald And Duke Ellington - Compact Jazz
DYEAR=1993
DGENRE=
TTITLE0=Take the "A" Train
TTITLE1=Caravan
TTITLE2=I Got It Bad (and That Ain't Good)
TTITLE3=I'm Beginning to See the Light
TTITLE4=I Didn't Know About You
TTITLE5=I Ain't Got Nothin' but the Blues
TTITLE6=Everything but You
TTITLE7=(I've Got) Something to Live For
TTITLE8=Duke's Place
TTITLE9=Passion Flower
TTITLE10=Cottontail
TTITLE11=Mack The Knife
TTITLE12=It Don't Mean a Thing (if It Ain't Got That Swing)
EXTD=YEAR: 1993
EXTT0=
EXTT1=
EXTT2=
EXTT3=
EXTT4=
EXTT5=
EXTT6=
EXTT7=
EXTT8=
EXTT9=
EXTT10=
EXTT11=
EXTT12=
PLAYORDER=
